<?xml version="1.0" encoding="utf-8"?>
<!-- Generator: Adobe Illustrator 27.8.1, SVG Export Plug-In . SVG Version: 6.00 Build 0)  -->
<svg version="1.1" id="Layer_1" xmlns="http://www.w3.org/2000/svg" xmlns:xlink="http://www.w3.org/1999/xlink" x="0px" y="0px"
	 viewBox="0 0 792 219.65" style="enable-background:new 0 0 792 219.65;" xml:space="preserve">
<style type="text/css">
	.st0{fill:#E82429;}
</style>
<g>
	<path class="st0" d="M731.74,154.05c0-2.24-0.71-4.06-2.19-5.58c-1.45-1.54-3.18-2.29-5.29-2.29c-1.19,0-2.29,0.25-3.32,0.77
		c-1.15,0.6-2.36,1.36-3.74,2.35c0,0-1.7,1.52-3.14,1.52c-3.27,0-3.91-5.27-3.91-10.42V95.03h9.64c2.43,0,4.33-0.32,5.58-0.92
		c0.35-0.2,1.42-0.76,1.42-3.5c0-3.23-1.25-3.81-1.65-4c-1.05-0.48-3.34-1.05-8.33-1.05h-6.5V65.64c0-8.04-3.77-11.79-11.87-11.79
		c-8.11,0-11.87,3.75-11.87,11.79v19.93h-3.83c-3.79,0-5.56,0.51-6.44,0.96c-1.12,0.52-1.35,2.42-1.35,3.92
		c0,1.28,0.37,2.33,1.15,3.23c0.43,0.51,1.74,1.36,5.85,1.36h4.61v40.63c0,12.6,9.6,21.66,13.99,24.15
		c4.53,2.49,9.73,3.75,15.47,3.75c3.94,0,7.68-0.87,11.11-2.59C730.23,159.41,731.74,157.14,731.74,154.05"/>
	<path class="st0" d="M264.88,33.68c-4.75-1.37-9.95,0.77-12.02,5.64c-17.9,42.11-43.45,107.05-43.45,107.05s-10-21.46-20.69-44.89
		c11.68-29.9,22.15-56.97,22.15-56.97c0.57-1.42,1.9-8.28-6.94-10.83c-4.76-1.37-9.95,0.77-12.02,5.64
		c-4.67,10.99-9.86,23.53-14.98,36.06c-5.24-11.75-9.71-22-12-27.86c-3.93-10.05-12.78-15.83-24.23-14.37
		c-13.3,1.68-18.14,12.01-15.77,20.22c2.27,7.88,17.12,42.38,31.22,73.61c-4.68,11.75-7.69,19.4-7.69,19.4s-36.25-77.79-44.5-98.85
		c-3.93-10.05-12.78-15.83-24.23-14.37c-13.3,1.68-18.15,12.01-15.78,20.22c4.16,14.42,50.46,118.07,57.16,127.45
		c3.73,5.22,8.95,8.87,17.4,8.87c9.2,0,15.26-3.11,19.14-10.63c1.23-2.38,5.28-12.26,10.63-25.66c6.59,14.07,11.86,24.7,13.79,27.42
		c3.73,5.22,8.95,8.87,17.4,8.87c9.2,0,15.26-3.11,19.14-10.63c4.83-9.37,53.21-134.54,53.21-134.54
		C272.4,43.09,273.72,36.24,264.88,33.68"/>
	<path class="st0" d="M361.19,151.93c0,7.93,3.77,11.63,11.87,11.63c8.11,0,11.88-3.7,11.88-11.63l-0.16-35.73
		c0-10.42-2.2-17.86-6.54-22.11c-5.45-5.35-12.93-8.06-22.21-8.06c-9.34,0-17.04,3.03-22.9,8.98l-1.74,1.77l-0.72-2.38
		c-1.69-5.63-5.41-8.37-11.38-8.37c-8.1,0-11.88,3.72-11.88,11.72v54.18c0,7.93,3.77,11.63,11.88,11.63c8.1,0,11.87-3.7,11.87-11.63
		l0-36.96c0.22-5.18,1.07-8.86,2.57-11.24c3-4.79,7.65-7.21,13.81-7.21c5.85,0,9.66,1.93,11.33,5.76c1.49,3.46,2.24,8.31,2.24,14.4
		L361.19,151.93z"/>
	<path class="st0" d="M463.62,144.89l23.62-52.07v57.93c0,3.59,1.27,6.56,3.87,9.08c2.57,2.51,5.59,3.74,9.26,3.74
		c3.71,0,6.77-1.22,9.33-3.73c2.55-2.51,3.8-5.48,3.8-9.08V66.67c0-3.54-1.24-6.49-3.8-9c-2.56-2.52-5.6-3.73-9.33-3.73
		c-4.95,0-8.63,2-11.13,5.93l-30.06,70.86c0,0-34.14-69.35-34.24-69.54c-1.56-3.22-4-5.36-7.47-6.55c-1.51-0.52-3.01-0.79-4.47-0.79
		c-1.87,0-3.76,0.42-5.59,1.28c-5.02,2.32-7.46,5.94-7.46,11.06c0,0.43,0.02,0.84,0.08,1.42l-0.08,90.83c0,3.59,1.58,5.12,5.28,5.12
		c3.76,0,5.36-1.53,5.36-5.12V92.55l28.55,54.26c1.56,3.23,4,5.36,7.47,6.55c1.49,0.52,3,0.78,4.46,0.78c1.88,0,3.77-0.44,5.59-1.29
		C460.17,151.26,463.62,144.89,463.62,144.89"/>
	<path class="st0" d="M539.96,160.86c4.18,1.79,8.82,2.7,13.78,2.7c10.7,0,18.23-3.63,23.02-11.1l1.54-2.4l1.68,4.18
		c2.01,4.68,5.47,6.96,10.58,6.96c3.23,0,5.89-1.11,8.14-3.4c2.3-2.31,3.41-5.02,3.41-8.29l-0.23-33.93
		c0-5.71-0.93-10.52-2.76-14.29c-1.79-3.74-4.98-6.93-9.46-9.48c-0.94-0.54-2.05-1.1-3.29-1.65l-0.55-0.24
		c-6.07-2.58-13.5-3.89-22.11-3.89c-3.52,0-7.88,0.38-12.98,1.16c-4.94,0.71-9.41,2.04-13.31,3.96c-3.51,1.68-5.21,3.86-5.21,6.68
		c0,2.08,0.73,3.54,2.3,4.57c1.74,1.1,3.8,1.65,6.12,1.65c1.88,0,3.49-0.36,4.79-1.07c1.41-0.78,3.07-2.01,4.91-3.66
		c2.04-1.84,3.84-3.21,5.35-4.1c1.69-0.97,3.76-1.46,6.15-1.46c5.3,0,9.41,1.74,12.21,5.18c2.71,3.34,4.09,7.75,4.09,13.1v1.47
		h-6.88c-4.8,0-9.86,0.45-15.05,1.32c-5.13,0.91-10.04,2.41-14.58,4.45c-4.47,1.99-8.16,4.77-10.99,8.29
		c-2.8,3.48-4.22,7.76-4.22,12.73c0,4.9,1.25,9.16,3.73,12.65C532.59,156.44,535.89,159.09,539.96,160.86 M557.61,125.6
		c4.74-3.3,10.44-4.97,16.94-4.97h4.37v6.58c0,4.13-0.19,7.45-0.56,9.84c-0.34,2.54-1.36,5.22-3.06,8.01
		c-3.68,5.54-8.21,8.35-13.47,8.35c-3.53,0-6.4-1.32-8.53-3.93c-1.98-2.52-2.99-5.54-2.99-9
		C550.31,134.03,552.77,129.02,557.61,125.6"/>
	<path class="st0" d="M629.08,163.57c3.23,0,5.89-1.11,8.14-3.4c2.25-2.3,3.34-5.03,3.34-8.32l0.01-27.86
		c0.33-5.94,1.33-10.35,3.06-13.46c2.25-4.44,5.15-6.7,8.62-6.7c1.31,0,3.12,0.36,5.52,1.08c2.1,0.64,3.83,0.95,5.15,0.95
		c2.06,0,3.67-0.89,4.89-2.71c1.37-2.09,2.03-4.31,2.03-6.8c0-3.07-0.95-5.5-2.94-7.43c-1.98-1.94-4.44-2.88-7.53-2.88
		c-3.85,0-7.54,1.51-10.93,4.48c-1.9,1.75-3.71,3.79-5.38,6.07l-2.12,2.88l-0.52-3.54c-1-6.75-4.6-9.89-11.34-9.89
		c-3.23,0-5.89,1.12-8.15,3.42c-2.24,2.25-3.34,4.93-3.34,8.22v54.17c0,3.29,1.1,6.02,3.35,8.32
		C623.19,162.46,625.85,163.57,629.08,163.57"/>
	<path class="st0" d="M281.67,85.66c-8.16,0-11.95,3.75-11.95,11.79v54.32c0,8.05,3.79,11.8,11.95,11.8c8.1,0,11.87-3.75,11.87-11.8
		V97.45C293.55,89.41,289.78,85.66,281.67,85.66"/>
	<g>
		<path class="st0" d="M281.09,77.84c10.63,0,11.86-5.28,11.86-9.25c0-3.97-1.23-9.26-11.86-9.26c-10.72,0-11.95,5.29-11.95,9.26
			C269.14,72.56,270.37,77.84,281.09,77.84z"/>
	</g>
</g>
</svg>
