<?xml version="1.0" encoding="utf-8"?>
<!-- Generator: Adobe Illustrator 28.3.0, SVG Export Plug-In . SVG Version: 6.00 Build 0)  -->
<svg version="1.1" id="Layer_1" xmlns="http://www.w3.org/2000/svg" xmlns:xlink="http://www.w3.org/1999/xlink" x="0px" y="0px"
	 viewBox="0 0 792 219.6" style="enable-background:new 0 0 792 219.6;" xml:space="preserve">
<style type="text/css">
	.st0{fill:#FFFFFF;}
</style>
<g>
	<path class="st0" d="M731.7,154.1c0-2.2-0.7-4.1-2.2-5.6c-1.5-1.5-3.2-2.3-5.3-2.3c-1.2,0-2.3,0.2-3.3,0.8
		c-1.2,0.6-2.4,1.4-3.7,2.4c0,0-1.7,1.5-3.1,1.5c-3.3,0-3.9-5.3-3.9-10.4V95h9.6c2.4,0,4.3-0.3,5.6-0.9c0.3-0.2,1.4-0.8,1.4-3.5
		c0-3.2-1.2-3.8-1.7-4c-1-0.5-3.3-1.1-8.3-1.1h-6.5V65.6c0-8-3.8-11.8-11.9-11.8c-8.1,0-11.9,3.8-11.9,11.8v19.9h-3.8
		c-3.8,0-5.6,0.5-6.4,1c-1.1,0.5-1.3,2.4-1.3,3.9c0,1.3,0.4,2.3,1.2,3.2c0.4,0.5,1.7,1.4,5.8,1.4h4.6v40.6c0,12.6,9.6,21.7,14,24.1
		c4.5,2.5,9.7,3.8,15.5,3.8c3.9,0,7.7-0.9,11.1-2.6C730.2,159.4,731.7,157.1,731.7,154.1"/>
	<path class="st0" d="M264.9,33.7c-4.8-1.4-9.9,0.8-12,5.6c-17.9,42.1-43.4,107-43.4,107s-10-21.5-20.7-44.9
		c11.7-29.9,22.1-57,22.1-57c0.6-1.4,1.9-8.3-6.9-10.8c-4.8-1.4-9.9,0.8-12,5.6c-4.7,11-9.9,23.5-15,36.1c-5.2-11.8-9.7-22-12-27.9
		c-3.9-10-12.8-15.8-24.2-14.4c-13.3,1.7-18.1,12-15.8,20.2c2.3,7.9,17.1,42.4,31.2,73.6c-4.7,11.7-7.7,19.4-7.7,19.4
		S112.2,68.6,104,47.5c-3.9-10-12.8-15.8-24.2-14.4c-13.3,1.7-18.2,12-15.8,20.2c4.2,14.4,50.5,118.1,57.2,127.4
		c3.7,5.2,8.9,8.9,17.4,8.9c9.2,0,15.3-3.1,19.1-10.6c1.2-2.4,5.3-12.3,10.6-25.7c6.6,14.1,11.9,24.7,13.8,27.4
		c3.7,5.2,8.9,8.9,17.4,8.9c9.2,0,15.3-3.1,19.1-10.6c4.8-9.4,53.2-134.5,53.2-134.5C272.4,43.1,273.7,36.2,264.9,33.7"/>
	<path class="st0" d="M361.2,151.9c0,7.9,3.8,11.6,11.9,11.6c8.1,0,11.9-3.7,11.9-11.6l-0.2-35.7c0-10.4-2.2-17.9-6.5-22.1
		c-5.5-5.3-12.9-8.1-22.2-8.1c-9.3,0-17,3-22.9,9l-1.7,1.8l-0.7-2.4c-1.7-5.6-5.4-8.4-11.4-8.4c-8.1,0-11.9,3.7-11.9,11.7v54.2
		c0,7.9,3.8,11.6,11.9,11.6c8.1,0,11.9-3.7,11.9-11.6v-37c0.2-5.2,1.1-8.9,2.6-11.2c3-4.8,7.6-7.2,13.8-7.2c5.9,0,9.7,1.9,11.3,5.8
		c1.5,3.5,2.2,8.3,2.2,14.4L361.2,151.9z"/>
	<path class="st0" d="M463.6,144.9l23.6-52.1v57.9c0,3.6,1.3,6.6,3.9,9.1c2.6,2.5,5.6,3.7,9.3,3.7c3.7,0,6.8-1.2,9.3-3.7
		c2.6-2.5,3.8-5.5,3.8-9.1V66.7c0-3.5-1.2-6.5-3.8-9c-2.6-2.5-5.6-3.7-9.3-3.7c-5,0-8.6,2-11.1,5.9l-30.1,70.9
		c0,0-34.1-69.3-34.2-69.5c-1.6-3.2-4-5.4-7.5-6.5c-1.5-0.5-3-0.8-4.5-0.8c-1.9,0-3.8,0.4-5.6,1.3c-5,2.3-7.5,5.9-7.5,11.1
		c0,0.4,0,0.8,0.1,1.4l-0.1,90.8c0,3.6,1.6,5.1,5.3,5.1c3.8,0,5.4-1.5,5.4-5.1V92.6l28.5,54.3c1.6,3.2,4,5.4,7.5,6.6
		c1.5,0.5,3,0.8,4.5,0.8c1.9,0,3.8-0.4,5.6-1.3C460.2,151.3,463.6,144.9,463.6,144.9"/>
	<path class="st0" d="M540,160.9c4.2,1.8,8.8,2.7,13.8,2.7c10.7,0,18.2-3.6,23-11.1l1.5-2.4l1.7,4.2c2,4.7,5.5,7,10.6,7
		c3.2,0,5.9-1.1,8.1-3.4c2.3-2.3,3.4-5,3.4-8.3l-0.2-33.9c0-5.7-0.9-10.5-2.8-14.3c-1.8-3.7-5-6.9-9.5-9.5c-0.9-0.5-2-1.1-3.3-1.7
		l-0.5-0.2c-6.1-2.6-13.5-3.9-22.1-3.9c-3.5,0-7.9,0.4-13,1.2c-4.9,0.7-9.4,2-13.3,4c-3.5,1.7-5.2,3.9-5.2,6.7
		c0,2.1,0.7,3.5,2.3,4.6c1.7,1.1,3.8,1.7,6.1,1.7c1.9,0,3.5-0.4,4.8-1.1c1.4-0.8,3.1-2,4.9-3.7c2-1.8,3.8-3.2,5.3-4.1
		c1.7-1,3.8-1.5,6.2-1.5c5.3,0,9.4,1.7,12.2,5.2c2.7,3.3,4.1,7.8,4.1,13.1v1.5h-6.9c-4.8,0-9.9,0.4-15,1.3c-5.1,0.9-10,2.4-14.6,4.4
		c-4.5,2-8.2,4.8-11,8.3c-2.8,3.5-4.2,7.8-4.2,12.7c0,4.9,1.2,9.2,3.7,12.6C532.6,156.4,535.9,159.1,540,160.9 M557.6,125.6
		c4.7-3.3,10.4-5,16.9-5h4.4v6.6c0,4.1-0.2,7.5-0.6,9.8c-0.3,2.5-1.4,5.2-3.1,8c-3.7,5.5-8.2,8.4-13.5,8.4c-3.5,0-6.4-1.3-8.5-3.9
		c-2-2.5-3-5.5-3-9C550.3,134,552.8,129,557.6,125.6"/>
	<path class="st0" d="M629.1,163.6c3.2,0,5.9-1.1,8.1-3.4c2.2-2.3,3.3-5,3.3-8.3l0-27.9c0.3-5.9,1.3-10.3,3.1-13.5
		c2.2-4.4,5.2-6.7,8.6-6.7c1.3,0,3.1,0.4,5.5,1.1c2.1,0.6,3.8,0.9,5.2,0.9c2.1,0,3.7-0.9,4.9-2.7c1.4-2.1,2-4.3,2-6.8
		c0-3.1-1-5.5-2.9-7.4c-2-1.9-4.4-2.9-7.5-2.9c-3.8,0-7.5,1.5-10.9,4.5c-1.9,1.8-3.7,3.8-5.4,6.1l-2.1,2.9l-0.5-3.5
		c-1-6.8-4.6-9.9-11.3-9.9c-3.2,0-5.9,1.1-8.2,3.4c-2.2,2.2-3.3,4.9-3.3,8.2v54.2c0,3.3,1.1,6,3.3,8.3
		C623.2,162.5,625.8,163.6,629.1,163.6"/>
	<path class="st0" d="M281.7,85.7c-8.2,0-12,3.8-12,11.8v54.3c0,8.1,3.8,11.8,12,11.8c8.1,0,11.9-3.8,11.9-11.8V97.4
		C293.5,89.4,289.8,85.7,281.7,85.7"/>
	<g>
		<path class="st0" d="M281.1,77.8c10.6,0,11.9-5.3,11.9-9.2s-1.2-9.3-11.9-9.3c-10.7,0-12,5.3-12,9.3
			C269.1,72.6,270.4,77.8,281.1,77.8z"/>
	</g>
</g>
</svg>
